M48
; DRILL file {KiCad 8.0.7} date 2025-01-05T00:41:15+0300
; FORMAT={-:-/ absolute / metric / decimal}
; #@! TF.CreationDate,2025-01-05T00:41:15+03:00
; #@! TF.GenerationSoftware,Kicad,Pcbnew,8.0.7
; #@! TF.FileFunction,Plated,1,4,PTH
FMAT,2
METRIC
; #@! TA.AperFunction,Plated,PTH,ComponentDrill
T1C0.203
; #@! TA.AperFunction,Plated,PTH,ViaDrill
T2C0.300
; #@! TA.AperFunction,Plated,PTH,ComponentDrill
T3C0.460
; #@! TA.AperFunction,Plated,PTH,ComponentDrill
T4C0.991
; #@! TA.AperFunction,Plated,PTH,ComponentDrill
T5C1.000
; #@! TA.AperFunction,Plated,PTH,ComponentDrill
T6C1.200
; #@! TA.AperFunction,Plated,PTH,ComponentDrill
T7C1.400
; #@! TA.AperFunction,Plated,PTH,ComponentDrill
T8C3.200
%
G90
G05
T1
X171.175Y-23.95
X171.175Y-53.0
X171.175Y-83.4
X171.75Y-23.0
X171.75Y-24.9
X171.75Y-52.05
X171.75Y-53.95
X171.75Y-82.45
X171.75Y-84.35
X172.325Y-23.95
X172.325Y-53.0
X172.325Y-83.4
T2
X130.45Y-44.8
X136.0Y-53.16
X136.35Y-67.0
X136.635Y-61.911
X137.4Y-53.16
X137.75Y-43.8
X137.75Y-67.0
X137.95Y-46.1
X138.275Y-55.625
X138.75Y-36.4
X138.95Y-65.0
X139.316Y-35.834
X140.55Y-55.6
X140.65Y-63.6
X140.65Y-84.2
X140.65Y-91.8
X141.35Y-61.8
X141.75Y-68.9
X141.75Y-72.9
X142.15Y-62.2
X142.45Y-36.2
X142.85Y-64.4
X142.95Y-62.6
X143.25Y-94.1
X143.35Y-36.2
X145.05Y-86.1
X145.246Y-93.062
X145.8Y-72.95
X145.858Y-67.792
X145.95Y-30.9
X146.05Y-52.4
X146.85Y-93.0
X146.95Y-69.6
X147.05Y-50.7
X147.35Y-35.2
X147.55Y-61.0
X147.65Y-53.4
X147.75Y-27.8
X148.625Y-37.75
X148.75Y-57.4
X149.45Y-30.7
X149.55Y-58.0
X149.95Y-31.5
X149.95Y-59.9
X150.325Y-57.4
X150.65Y-86.1
X150.95Y-67.8
X151.35Y-52.475
X151.45Y-27.7
X151.45Y-35.0
X151.85Y-53.2
X151.85Y-69.74
X152.35Y-53.9
X152.75Y-67.765
X152.849Y-75.599
X153.85Y-70.54
X154.25Y-31.6
X154.65Y-84.0
X155.45Y-86.3
X156.05Y-58.2
X157.05Y-56.2
X157.05Y-59.625
X157.725Y-60.16
X158.25Y-33.5
X158.25Y-34.5
X158.25Y-35.5
X158.35Y-62.2
X158.4Y-30.0
X158.85Y-57.1
X159.0Y-60.15
X160.15Y-66.8
X160.25Y-95.5
X160.45Y-37.3
X161.65Y-66.3
X161.65Y-95.6
X161.95Y-36.3
X162.067Y-53.917
X162.067Y-84.417
X162.15Y-25.0
X162.65Y-66.1
X162.817Y-53.917
X162.817Y-84.417
X162.9Y-25.0
X163.05Y-88.5
X163.05Y-95.2
X163.25Y-37.4
X163.55Y-33.8
X163.65Y-59.1
X163.95Y-66.2
X164.05Y-29.1
X164.15Y-95.5
X164.15Y-100.0
X164.25Y-39.6
X164.55Y-71.4
X164.85Y-32.2
X164.85Y-63.18
X164.85Y-92.1
X165.15Y-90.82
X165.85Y-64.6
X165.95Y-30.9
X166.05Y-93.6
X166.25Y-35.6
X166.25Y-61.7
X166.25Y-66.6
X166.25Y-95.6
X166.35Y-37.2
X166.35Y-68.2
X166.35Y-97.2
X167.025Y-39.4
X167.025Y-100.4
X167.05Y-71.0
X167.15Y-36.4
X167.15Y-67.4
X167.15Y-96.4
X167.45Y-29.0
X167.55Y-26.5
X167.65Y-59.0
X167.95Y-35.6
X167.95Y-37.2
X167.95Y-66.6
X167.95Y-68.2
X167.95Y-95.6
X167.95Y-97.2
X168.025Y-33.5
X168.35Y-64.3
X168.55Y-88.5
X168.95Y-83.725
X168.95Y-100.98
X169.15Y-53.6
X169.25Y-24.275
X169.25Y-25.7
X169.25Y-31.0
X169.25Y-56.4
X169.35Y-27.2
X170.15Y-42.4
X170.85Y-67.9
X170.95Y-72.4
X171.375Y-38.0
X171.45Y-97.4
X172.85Y-21.7
X172.85Y-97.5
X172.95Y-50.8
X172.95Y-81.2
X173.65Y-68.2
X173.85Y-23.7
X173.875Y-52.7
X173.9Y-37.25
X173.9Y-38.75
X173.95Y-83.2
X174.55Y-56.3
X174.55Y-87.0
X175.05Y-27.3
X175.75Y-54.925
X175.75Y-85.4
X175.85Y-25.6
X188.95Y-86.5
X189.05Y-30.4
X189.15Y-58.7
X191.25Y-58.3
X191.85Y-85.7
X192.75Y-30.0
T3
X143.566Y-70.23
X143.566Y-71.4
T4
X129.711Y-48.75
X129.711Y-55.25
X129.711Y-64.75
X129.711Y-71.25
X134.211Y-48.75
X134.211Y-55.25
X134.211Y-64.75
X134.211Y-71.25
T5
X131.275Y-60.0
X133.815Y-60.0
X143.11Y-45.1
X145.65Y-45.1
X148.19Y-45.1
X150.73Y-45.1
T6
X141.585Y-17.46
X141.585Y-20.0
X144.125Y-17.46
X144.125Y-20.0
X146.665Y-17.46
X146.665Y-20.0
X149.205Y-17.46
X149.205Y-20.0
X151.745Y-17.46
X151.745Y-20.0
T7
X131.35Y-86.095
X131.35Y-89.905
X131.55Y-30.095
X131.55Y-33.905
X205.15Y-30.095
X205.15Y-33.905
X205.15Y-58.095
X205.15Y-61.905
X205.15Y-86.095
X205.15Y-89.905
T8
X130.25Y-14.525
X130.25Y-105.525
X206.25Y-14.531
X206.25Y-105.516
M30
